<svg xmlns="http://www.w3.org/2000/svg" viewBox="0 0 611 793"><path id="IT_65" title="Abruzzo" d="m 374.3,304.0 1.4,6.3 2.2,5.5 6.3,11.2 7.0,7.7 8.2,6.2 0.9,2.3 3.7,3.5 0.3,1.4 5.6,3.7 5.2,1.8 0.2,4.8 3.4,2.4 0,0 -1.2,1.9 0.9,0.8 -2.8,2.0 -2.3,2.8 -0.8,3.1 -2.4,1.7 -1.7,3.7 -4.8,5.1 -2.0,-0.4 0.8,-0.6 -1.1,-4.3 -1.1,-1.1 -2.4,-1.6 -1.1,1.3 -0.6,-0.2 -1.0,-2.2 -1.2,0.1 -0.9,-1.3 -2.9,2.4 -1.4,2.2 -2.2,0.1 -0.4,0.9 1.2,3.5 1.5,0.9 -0.4,1.0 -0.8,-0.1 -0.2,-1.0 -0.7,1.2 -2.0,0.1 -0.6,2.6 -0.8,-2.1 -1.2,0.1 -0.9,2.4 -1.3,0.1 -0.3,1.5 -1.9,-1.0 -2.1,0.5 0,0 -2.5,-3.3 -2.0,0.2 -2.4,-1.4 -1.0,0.7 -1.3,-0.4 -1.8,-3.3 -1.3,0.7 -1.1,-1.2 -1.8,-0.5 -1.1,2.1 -4.0,1.4 -1.5,-0.9 -0.7,-1.8 -1.8,-0.4 -1.5,-1.4 -1.7,-0.7 -1.4,1.4 -1,-3.6 1.3,-2.3 -1,-1.4 -1.0,0.2 -2.0,-2.3 -0.9,0.4 -7.7,-4.5 -2.0,-0.7 -0.0,1.2 -2.4,-0.6 -1.4,-2.2 0.1,-4.9 0.8,0.4 2.1,-1.8 0.1,-2.4 1.7,-0.1 6.6,3.5 1.2,-0.8 1.7,0.6 1.1,-2.2 1.5,-0.3 -0.5,-0.7 1.8,-0.3 -1.9,-1.2 -0.3,-1.6 -2.4,-0.8 -2.6,-2.5 -0.7,-3.3 -3.7,-2.5 2.1,-2.3 -4.0,-3.7 3.2,-2.4 -0.1,-2.4 -1,-1.9 1.0,-0.6 0.8,-2.8 2.8,1.0 0.6,-0.7 1.4,0 0.6,1.0 1.5,-0.8 2.3,0.3 1.4,-1.2 0.8,-3.4 -2.0,-0.6 -1.1,-1.4 0.5,-1.7 0,0 0,0 0,0 0,0 0,0 1.7,0.5 1.9,-1.3 0.6,0.5 0.6,-2.4 2.4,-0.4 0.3,-2.5 1.3,-1.5 0.2,-1.4 2.1,1.1 2.4,-1.1 0.7,0.9 1.4,-0.2 2.0,-0.9 0.5,-2.2 0.7,-0.4 2.8,-0.2 2.1,-1.4 5.0,-1.1 0,0 z"/><path id="IT-77" title="Basilicata" d="m 457.4,430.1 -0.3,-1.2 1.3,-1.2 1.9,-0.4 4.7,0.8 2.5,-0.9 1.4,1.1 1.7,-0.9 -0.2,-0.9 1.7,-0.4 -0.2,-0.8 0.8,0.3 1.4,-0.8 2.3,1.6 1.7,0.3 0.2,1.0 1.3,0.3 0.6,2.4 0.6,-0.4 1.8,1.5 -0.6,1.0 0.3,1.6 -1.8,2.0 -1.5,-0.3 0.6,1.1 5.6,2.4 1.6,1.5 2.1,-2.0 2,0.7 2.9,6.5 6.6,6.0 0.8,1.7 1.5,0.4 3.5,-4.0 2.0,2.5 -0.1,-1.9 1.0,-0.3 0.8,1.3 0.1,-1.7 1.7,0.7 1.0,-0.6 0.2,1.0 1.2,0.7 0.5,-0.7 2.9,2.2 -1.0,0.5 1.2,1.4 -0.9,3.6 0.9,2.0 -0.6,0.5 -0.4,2.9 1.0,1.0 -0.4,0.8 1.2,0.9 -1.0,2.1 0.9,0.9 1.7,-0.4 1.8,1.1 0.4,1.6 1.7,1.5 0.8,1.9 0,0 -3.9,5.6 -4.8,10.4 -2.3,1.7 0,0 -2.7,-0.9 -3.1,1.0 -3.1,-1.0 -1.9,0.4 -0.7,-1.1 -0.6,1.5 0.2,2.8 -1.0,2.2 0.3,2 -3.0,5.4 1.1,1.1 -0.4,1.3 -2.1,-2.4 -2,-0.2 -2.9,0.7 -0.0,1.8 -2.8,-1.3 -1.0,1.1 -4.8,0.3 -1.6,-1.7 0.4,-0.6 -0.8,-1.6 1.2,-2.2 -1.2,-0.3 -1.5,0.8 -0.7,-1.0 -1.9,-0.3 -1.4,1.2 -0.6,-0.9 -0.9,0.5 -0.9,-0.9 -1.7,0.2 -2.4,2.5 -0.9,2.6 0,0 -1.8,-3.5 -2.1,-1.9 -0.1,-1.5 -1.7,-1.0 0,0 1.7,-1.0 -1.3,-1.4 1.2,-0.3 1.6,-2.1 -0.3,-2.9 1.6,-1.6 -0.1,-1 3.5,-1.5 -0.5,-1.2 0.9,-0.8 -0.0,-1.4 -0.6,-1.1 -2.9,-0.8 -0.1,-1.3 -1.6,-1.5 -0.1,-2.6 -2.1,-0.8 -1.6,-2.1 -2.1,-1.0 -0.5,-1.7 -2.2,-1.7 0.7,-1.1 -1.4,-3.2 0.7,-0.8 -4.3,-2.6 0.7,-2.0 1.6,-1.0 0.1,-0.8 -5.9,-3.9 0.2,-4.8 -0.8,-0.1 0.2,-1.2 -2.1,-1.3 2.1,-0.1 0.1,-2.1 -1.0,-0.5 0.4,-0.7 4.8,1.1 0.6,-0.3 -0.2,-1.2 3.0,-1.3 2.3,-5.9 z"/><path id="IT-78" title="Calabria" d="m 468.3,506.0 0.9,-2.6 2.4,-2.5 1.7,-0.2 0.9,0.9 0.9,-0.5 0.6,0.9 1.4,-1.2 1.9,0.3 0.7,1.0 1.5,-0.8 1.2,0.3 -1.2,2.2 0.8,1.6 -0.4,0.6 1.6,1.7 4.8,-0.3 1.0,-1.1 2.8,1.3 0.0,-1.8 2.9,-0.7 2,0.2 2.1,2.4 0.4,-1.3 -1.1,-1.1 3.0,-5.4 -0.3,-2.0 1.0,-2.2 -0.2,-2.8 0.6,-1.5 0.7,1.1 1.9,-0.4 3.1,1.0 3.1,-1.0 2.7,0.9 0,0 -1.9,2.4 -0.3,2.6 1.4,5.8 -4.6,5.8 -2.5,4.6 0.0,2.9 2.0,2.3 -0.6,3.5 5.1,3.0 8.0,0.1 4.7,5.3 4.7,2.9 3.5,0.9 0.8,2.1 2.1,2.1 3.9,1.4 -2.4,5.9 -0.2,3.7 2.2,3.2 -2.0,6.5 1.4,1.9 -0.3,0.9 0.7,1.1 3.1,1.4 -2.2,2.0 0.2,2.8 -3.8,4 -0.3,-1.1 -1.4,-0.5 -2.1,0.8 -2.1,-2.2 -4.7,0.7 -5.7,2.1 -8.8,5.4 -3.6,6.5 1.1,2.0 1.3,13.7 -0.5,2.8 -5.7,5.9 -7.2,3.1 -8,10.1 -1.0,6.8 -2.5,4.8 -1.7,2.1 -3.3,0.5 -4.0,-0.9 -8.2,0.8 -4.2,-2.4 -2.2,-4.1 1.1,-1.5 -1.3,-3.4 1.3,-2.9 -1.1,-3.4 0.1,-2.7 4.1,-1.7 1.9,-0.1 2.6,-1.5 1.2,-2.2 0.5,-3.2 1.1,-1.0 0.8,-2.7 1.5,-1.3 0.7,-1.9 0.8,-4.9 -5.3,-4.8 0.5,-1.8 1.8,-1.7 4.2,-1.4 1.7,-1.8 2.5,-0.3 3.4,1.0 1.7,-0.5 2.4,-1.9 2.0,-6.5 -0.3,-5.1 -3.1,-1.5 -3.0,-5.6 -1.6,-7.3 -0.8,-10.5 -2.8,-9.1 -3.6,-5.7 -2.6,-1.9 -2.1,-7.3 -0.9,-0.8 -1.4,-8.8 -1.0,-1.7 1.1,-1.9 -1.9,-4.1 z"/><path id="IT-72" title="Campania" d="m 389.9,463.6 2.0,0.2 -0.7,0.9 -2.9,0.4 0.1,-1.6 1.5,0.1 z m -18.3,-13.5 4.4,1.2 0.5,0.8 -0.7,2.1 -2.8,0.0 -0.3,0.6 -2.0,-1.0 -0.0,-1.9 0.9,-1.8 z m 5.6,-47.7 1.5,0.8 -0.3,1.5 2.1,2.5 2.1,-0.5 1.3,0.9 -0.3,-2.4 -1.4,-1.7 2.2,-4.0 2.3,1.9 0.4,-1.4 3.5,0.1 0.2,0.8 1.8,0.0 0.3,1.0 2.0,1.1 8.0,2.3 0.4,1.6 1.2,0.9 3.3,-0.5 1.2,1.8 2.2,-1.9 1.1,-0.1 -0.0,-0.9 2.0,-0.2 0.9,0.7 1.9,-0.6 1.7,-2.9 4.0,1.7 1.6,-1.6 2.6,-0.2 3.0,-2.1 0,0 1.8,2.8 2.9,0.8 0.2,0.8 -0.8,0.8 0.5,1.2 -1.1,0.2 -0.8,1.2 0.6,2.6 3.0,1.1 0.2,2.2 3.4,-0.1 1.0,1.5 1.6,-0.3 1.3,1.4 -1.6,1.0 0.8,2.4 -2.0,1.2 -0.8,2.0 1.6,0.8 0.7,1.9 2.0,1.4 1.1,-0.9 2.8,1.2 1.7,-1.3 2.1,1.8 1.6,-0.1 3.6,1.8 0,0 1.4,4.0 -2.3,5.9 -3.0,1.3 0.2,1.2 -0.6,0.3 -4.8,-1.1 -0.4,0.7 1.0,0.5 -0.1,2.1 -2.1,0.1 2.1,1.3 -0.2,1.2 0.8,0.1 -0.2,4.8 5.9,3.9 -0.1,0.8 -1.7,1 -0.7,2.0 4.3,2.6 -0.7,0.8 1.4,3.2 -0.7,1.1 2.2,1.7 0.5,1.7 2.1,1.0 1.6,2.1 2.1,0.8 0.1,2.6 1.6,1.5 0.1,1.3 2.9,0.8 0.6,1.1 0.0,1.4 -0.9,0.8 0.5,1.2 -3.5,1.5 0.1,1 -1.6,1.6 0.3,2.9 -1.6,2.1 -1.2,0.3 1.3,1.4 -1.7,1.0 0,0 -0.9,-2.0 -2.8,-0.4 -3.6,0.9 -4.2,4.9 -3.4,-0.6 -2.0,-2.0 -2.2,0.6 -0.2,-0.6 0.9,-0.7 -0.7,-2.2 -3.3,-3.2 -1.5,-0.2 -2.5,-3.0 -4.7,0.1 -2.6,-3.3 -3.7,-1.1 -0.6,-1.1 2.0,-1.5 0.1,-4.0 2.6,-1.5 0.0,-2.9 -6.0,-12.6 -5.3,-5.6 -2.7,0.4 -1.4,2.1 -3.3,-1.0 -2.7,2.4 -2.4,0.4 -2.4,-1.3 -8.1,3.9 0.8,-4.1 3.2,-0.6 0.4,-1.5 3.6,-2.5 -1.1,-3.2 -3.1,-1.0 -3.5,-3.9 -2.8,-1.8 -2.6,1.1 -1.8,2.4 -1.5,-0.2 0.8,-0.4 -0.7,-1.0 -3.4,-1.0 -1.1,0.8 0.8,2.7 -2.2,-0.8 -0.0,-4.5 -1.1,-3.9 -2.6,-4.2 -0.1,-0.1 -2.4,-2.6 -1.4,-4.8 -3.6,-5.8 -3.2,-3.2 0,0 0.6,-1.3 3,-0.6 0.5,-0.8 -0.7,-0.2 0.1,-1.0 3.1,-1.1 -1.0,-4.5 0.8,-1.5 -1.3,-2.2 2.1,-0.4 3.0,-2.8 0.7,0.0 z"/><path id="IT-45" title="Emilia-Romagna" d="m 314.3,228.2 -1.2,3.1 0.2,4.1 -2.5,1.0 -0.5,2.1 -2.9,-0.4 0.2,-1.0 -0.8,-0.3 -0.7,-2.5 -2.7,1.1 0,-2.1 -2.3,-1.3 0,0 1.1,-1.6 -0.3,-3.8 -3.7,2.5 -1.7,0.0 0.3,3.6 0,0 0,0 0,0 1.2,2.2 -1.6,-0.0 -0.3,-0.8 -2.0,0.8 -1.0,3.5 -2.6,2.1 -0.2,2.2 0,0 -0.0,-0.0 0,0 -1.6,0.9 -2.0,-0.4 -0.8,2.0 -1.6,-2.3 -1.4,0.8 -1.4,-0.2 0,0 -1.7,0.9 -1.1,-1.3 0,0 -0.9,0.2 -1.5,-0.9 -1.1,0.4 0,0 -1.6,-1.1 -0.2,-1.0 0,0 -1.4,-0.2 -0.5,-1.3 -4.7,-0.2 -2,-2.4 -3.6,-2 0.3,-3.1 -1.8,-1.2 0.3,-1.6 -2.2,-2.1 0.2,-1.1 0.7,0.1 -0.2,-1.1 1.7,-0.6 0.4,-2.0 2.0,-2.2 0.3,-2.7 -5.5,1.1 -2.6,-0.4 1.4,-2.1 -0.2,-1.0 -2.6,-0.5 -1.0,1 -1.2,-0.3 -1.7,-2.0 -1.4,-0.4 -0.3,-2.1 -1.3,-1.2 -2.5,2.4 -2.5,0.3 -0.2,1.1 -2.3,2.1 -4.0,0.1 -0.1,0.9 2.9,1.7 0.2,1.1 -2.5,0.2 -3.1,-0.9 -3.3,1.4 -2.8,-0.3 -1.6,-1.1 0.6,-1.0 -0.4,-0.9 -4.9,5.5 -0.7,-0.3 0.3,-0.9 -0.7,-0.9 -2.3,-0.5 -5.0,-4.0 -5.6,-0.1 -1,1.2 0.1,1.4 -1.7,0.4 -3.4,-3.0 -0.2,-1.6 -1.7,-1.6 0.1,-1.4 -1.2,-0.7 -1.7,0.3 -3.0,-3.0 -1.6,-0.0 -2.2,-1.2 -2.4,1.2 -5.6,-6.0 -2.4,0.5 -4.3,-2.9 -1.1,-1.3 0.5,-2.6 -1.1,-0.2 -0.5,-1.2 -2.4,-0.9 -5.3,0.6 -3.4,5.4 -3.6,2.1 0,0 -1.4,-3.3 -2.7,-2.0 -1.1,0.7 -1.4,-0.9 -0.3,1.0 -2.8,0.3 -0.9,1.1 -0.3,-1.2 -1.6,0.4 1.5,-4.5 1.3,-0.2 0.5,-3.4 -0.9,-2.1 -3.2,-1.1 -0.8,-1.7 -2.4,1.8 -3.1,-2.5 -0.4,1.1 -2.1,-0.3 0.3,-0.8 -0.6,-0.6 -2.3,0.4 0,0 -0.0,-5.1 0.5,0.2 0,0 1.8,-0.1 -0.3,-2.0 1.3,2.5 3.2,-0.8 -0.7,-1.4 0.9,-1.0 -0.1,-1.2 -1.7,-0.9 -0.3,-1.1 3.9,-3.9 -1.1,-3.2 -1.0,-0.8 -0.7,0.4 -1.8,-1.6 1.2,-1.6 -0.6,-1.0 1.7,-0.4 1.4,-4.0 1.6,-1.8 -0.1,-2.2 2.0,-1.8 -0.1,-0.7 1.2,0.2 0.3,-0.8 2.8,-0.7 1.6,1.9 1.1,-1.0 -0.6,-2.7 0.7,-0.1 1.6,2.1 1.3,-0.5 0.7,-1.9 0.9,1.2 -0.1,2.5 4.2,1.8 1.6,-1.4 0.5,-1.0 -0.8,-1.1 0.9,-0.3 0.8,1.5 1.9,0.9 0.4,1.9 0.9,-3.2 1,0.0 1.0,1.5 0.9,-0.4 0.2,-1.2 -1.1,-1.6 1.8,-1.5 0.7,0.6 -0.4,2.2 2.9,-2.2 0.9,0.1 1.9,2.5 -0.4,1.5 1.5,1.2 0.1,1.2 1.5,-0.3 0.8,1.7 3.3,-1.6 0.5,0.9 2.2,-0.1 3,2.4 1.6,0.0 2.8,2.3 2.5,-1.3 1.5,2.9 4.6,2.2 3.9,-0.2 1.4,-0.8 2.9,-4.1 0.5,1.6 1.8,-2.1 1.0,3.1 4.4,0.7 0.8,0.8 0.9,-0.2 0.1,0.8 1.3,-0.2 -0.2,0.6 1.5,-0.9 1.4,0.2 0.2,-1.1 2.3,-1.2 3.1,0.3 0.9,-0.8 2.6,0.6 1.2,1.6 0.6,-0.7 3.9,-0.3 0.4,-0.7 1.5,1.1 1.7,-1.6 6.2,0.9 0,0 0.2,1.5 5.7,-0.4 2.1,1.4 0.4,1.6 0.7,0.2 1.2,-0.1 2.0,-1.9 3.2,-0.9 0.7,-2.2 2.9,-1.4 6.3,0.1 2.2,-0.8 6.7,1.1 2.3,3.1 1.5,-1.0 0.8,1.1 2.1,0.2 1.5,-1.3 1.1,-0.0 0.8,1.1 -0.6,1.2 0.3,2.9 0.6,0.9 2.0,0.5 0.6,2.2 0,0 -0.7,0.2 -1.2,-1.8 -1.2,-0.4 -1.7,2.3 1.3,-0.5 -1.7,4.4 -0.6,5.0 0.5,3.3 2.0,3.8 -0.1,8.8 1.8,4.8 0.2,3.4 2.0,7.2 1.8,3.5 6.7,7.8 2.5,1.7 6.0,6.4 2.8,1.0 z m -29.4,11.3 -0.3,1.1 1.4,1.6 2.2,-1.1 -0.3,-1.1 0,0 -0.2,-0.5 -2.8,-0.0 z"/><path id="IT-36" title="Friuli-Venezia Giulia" d="m 316.6,34.3 1.9,0.6 0,1.4 0.7,0.4 4.1,-0.3 6.2,1.2 1.9,-0.5 4.2,1.0 3.7,2.8 1.7,-0.7 2.5,0.7 1.2,-1.3 1.3,0.1 0.1,-0.9 1.8,0.5 -0.1,0.8 1.0,0.3 3.9,-0.7 0.8,1.4 2.2,-0.3 0.6,1.0 2.4,-0.3 5.0,1.6 -1.5,6.1 -1.9,-0.7 -2.9,0.7 -1.4,2.9 -4.9,2.8 -1.6,0.1 0.0,2.7 -3.4,2.1 2.5,4.6 -0.6,1.7 1.8,-0.2 -0.1,-0.9 1.8,0.1 1.0,0.7 1.4,-0.2 1.6,1.1 0.6,1.5 3.2,-0.5 1.4,0.8 -1.0,3.2 -3.6,3.5 -3.8,2.4 0.3,2.3 -1.6,1.6 3.0,2.9 1.6,-0.2 1.3,-1.5 2.6,0.3 -0.3,3.5 -3.1,6.1 1.0,3.3 1.3,0.9 2.4,-0.4 4.0,3.4 2.5,0.7 3.6,6.3 2.8,2.0 -4.1,3.7 -2.2,0.1 -2.5,-1.3 -1.5,0.4 -0.1,-0.9 0.8,-0.4 2.7,0.8 1.2,-1.0 -1.4,0.1 -0.5,-1.6 -1.0,0.2 -0.6,-0.7 1.2,-0.9 -0.7,-2.1 -6.2,-6.6 -2.5,-0.7 -1.1,0.4 -0.6,-0.8 -1.4,1.5 -0.2,1.7 1.8,1.4 -3.4,1.6 -0.8,-0.3 -2.1,2.1 -2.4,0.2 -5.1,-2.8 -1.8,-0.3 -0.3,0 -0.1,-0.1 -4.2,1.1 -2.9,4.4 0,0 -1.1,-0.6 0.1,-0.6 -1.0,0.1 0.2,-1.3 -1.0,-0.8 0.4,-0.8 -0.8,-0.2 -0.6,-2.7 -1.0,0.7 0.3,-1.2 -0.7,-1.3 0.5,-0.3 -2.0,-1.9 1.1,-0.6 -0.8,-0.3 0.2,-0.8 -0.4,-0.4 0.0,-0.3 -0.6,-1.6 -0.6,0.2 0.5,1.4 -1.6,0.5 -0.5,-1.1 -1.5,0.9 -1.2,-1.1 0.4,-1.1 -0.6,-0.1 -2.2,1.1 -0.6,1.0 -0.6,-0.7 0.4,-1 -1.1,-0.8 -2.0,2.1 -0.7,-0.7 -3.9,3.6 -0.1,-1.6 -1.1,-0.5 -0.1,-0.9 -1.2,-0.7 -0.7,1.6 -2,-1.1 0.2,-1.2 -1.4,-1.3 -1.3,-4.5 -1.5,-0.0 -1.0,-1.5 -1.4,-0.0 -0.0,-3.5 -0.7,-2.6 -0.9,-0.8 1.8,-2.8 2.9,-2.0 0.5,-3.6 -2.4,-1.9 -0.3,-2.1 -1.8,0.1 -0.3,-1.6 -2.1,0.0 -2.1,-2.9 1.8,-1.9 -0.0,-2.0 1.0,-0.8 1.9,0.3 0.3,-2.0 1.8,-0.9 -0.2,-0.6 0.6,0.3 -0.3,-1.4 2,-1.8 0.3,-1.8 1.5,-2.0 0.4,0.4 1.6,-1.2 1.9,0.8 1.0,-0.8 1.8,0.8 -0.4,-1.7 -1.2,-0.8 0.1,-0.9 3.5,-2.2 2.5,-0.1 -0.9,-1.2 0.7,-2.3 -1.0,-1.7 0.2,-1.8 0,0 1.6,-0.9 1.8,0.7 z"/><path id="IT-62" title="Lazio" d="m 325.4,439.6 -0.2,1.3 0.6,0.2 -1,1.1 -0.2,-2.8 2.2,-1.0 -1.4,1.2 z m 51.6,-39.3 1.0,0.8 -0.8,1.3 -0.8,-0.0 -3.0,2.8 -2.1,0.4 1.3,2.2 -0.8,1.5 1.0,4.5 -3.1,1.1 -0.1,1.0 0.7,0.2 -0.5,0.8 -3,0.6 -0.6,1.3 -2.8,-2.0 -1.2,0.6 -2.8,-1.1 -3.0,1.7 0.1,1.5 0.9,0.6 -2.0,0.1 -8.9,-5.2 -4.3,-1.0 -1.6,1 -2.3,-0.1 -2.9,0.9 -3.3,3.1 -2.4,-0.2 -2.9,-6.7 -3.7,-3.9 -3.6,-2.0 -3.4,-0.3 -0.8,0.6 -4.8,-3.2 -1.7,0.3 -0.1,0.7 -0.9,-0.4 -3.3,-5.9 -7.1,-8.4 -3.7,-3.1 -6.2,-2.8 -0.9,-5.9 -3.1,-5.8 -4.8,-2.8 -1.3,-1.9 -2.6,-1.0 -0.6,-1.2 -2.3,-1.5 -4.3,0.6 -1.7,-3.9 -3.0,-4.0 -0.2,-1.9 -2.1,-4.3 -2.2,-3.2 -5.4,-4.4 -5.1,-2.5 1.9,-4.2 6.8,-0.1 -0.1,-3.4 -2.8,-1.9 1.4,-1.9 -0.5,-1.8 0.6,-0.3 1.1,1.1 0.7,-0.9 0.8,0.2 1.7,-0.9 0.2,-1.1 1.5,-1.1 1.3,0.2 0.9,-2.1 1.4,0.2 1.4,-0.9 -0.1,-1.1 -1.1,-0.5 -0.4,-2.6 1.2,0.0 1.0,-2.4 -3.8,-3.0 1.2,-2.4 1.2,0.5 0.7,1.3 0.5,-2.0 1.6,-1.1 2.5,0.1 1.6,3.9 2.8,1.8 -1.0,2.0 -1.9,1.0 1.3,2.1 4.1,2.6 3.7,-1.3 1.0,1.1 0.1,-0.8 0.7,0.2 1.4,-1.2 1.6,0.7 1.7,2.1 0.6,4.5 1.7,0.8 -0.2,2.0 1.0,0.8 -0.8,0.7 1.5,0.8 -0.7,0.5 1.9,-0.2 1.2,1.3 2,-1.6 1.5,0.2 -0.2,1.9 0.7,0.7 -0.7,0.2 -0.0,2.1 2.3,0.8 -1.0,1.4 3.6,-0.5 -0.1,1.7 0.9,1 4.3,-3.4 0.2,-3.9 1.2,-0.1 0.9,1.9 1.2,-0.1 3.0,-2.0 -1.4,-2.0 3.1,-0.9 0.2,-1.3 2.0,0.1 1.9,-1.6 2.1,-0.7 -0.6,-2.5 0.6,-1.2 2.0,1.0 0.8,-1.0 3.2,0.0 0.7,-1.5 2.1,1.1 2.8,-1.7 0.1,-0.8 1.6,0.6 1.3,-1.3 0.8,-4.5 3.3,0.8 0.5,-1.2 1.1,-0.1 3.7,3.2 -0.5,1.7 1.1,1.4 2.0,0.6 -0.8,3.4 -1.4,1.2 -2.3,-0.3 -1.5,0.8 -0.6,-1.0 -1.4,-0.0 -0.6,0.7 -2.8,-1.0 -0.8,2.8 -1.0,0.6 1,1.9 0.1,2.4 -3.2,2.4 4.0,3.7 -2.1,2.3 3.7,2.5 0.7,3.3 2.6,2.5 2.4,0.8 0.3,1.6 1.9,1.2 -1.8,0.3 0.5,0.7 -1.5,0.3 -1.1,2.2 -1.7,-0.6 -1.2,0.8 -6.6,-3.5 -1.7,0.1 -0.1,2.4 -2.1,1.8 -0.8,-0.4 -0.1,4.9 1.4,2.2 2.4,0.6 0.0,-1.2 2.0,0.7 7.7,4.5 0.9,-0.4 2.0,2.3 1.0,-0.2 1,1.4 -1.3,2.3 1,3.6 1.4,-1.4 1.7,0.7 1.5,1.4 1.8,0.4 0.7,1.8 1.5,0.9 4.0,-1.4 1.1,-2.1 1.8,0.5 1.1,1.2 1.3,-0.7 1.8,3.3 1.3,0.4 1.0,-0.7 2.4,1.4 2.0,-0.2 2.5,3.3 2.0,1.7 1.4,3.6 0.1,1.4 -0.7,0.6 1.4,1.5 -0.2,0.9 -0.8,0.2 1.2,1.1 -2.9,2.0 z m -77.7,-27.9 -0.0,-0.1 0.0,-0.2 -0.1,-0.1 -0.1,0.0 -0.2,0.0 -0.2,0.3 -0.0,0.1 0.1,0.1 0.1,-0.0 0.3,0.1 0.2,-0.1 0,-0.1 z"/><path id="IT-42" title="Liguria" d="m 165.8,222.6 -0.4,1.0 -0.6,-1.0 1.0,0 z m -109.8,-1.2 0.8,0.3 1.6,-1.7 -1.3,0.0 -0.9,-1.4 0.5,-1.5 1.9,-1.1 9,2.9 1.6,-0.9 2.0,0.7 0.4,-0.7 -0.6,-0.9 -1.3,-0.6 1.8,-1.5 1.5,1.0 1.4,-0.5 1.2,-1.5 -0.1,-1.9 -1.5,-1.3 0.7,-1.7 -0.9,-1.1 1.2,-1.2 -1.3,-1.3 0,-1 0.4,-0.5 1.5,0.7 0.3,-2.2 1.3,0.2 1.0,-1.6 -0.2,-2.0 3.2,-1.8 0.8,-1.9 -1.4,-3.3 1.4,-0.5 -0.0,-1.9 1.6,-1.2 1.0,1.5 1.9,0.2 3.1,2.6 1.3,-0.7 0.6,-2.2 0.8,-0.4 1.5,1.1 1.1,-1.7 0.3,0.9 3.2,-0.1 1,0.8 2.7,-3.0 -0.8,-0.9 1.2,-1.9 3.6,0.2 1.6,0.2 1.8,2.9 -0.3,0.9 0.9,-0.0 0.4,2.2 1.3,-0.5 -0.4,-1.5 1.7,-1.5 -0.0,-1.5 2.3,-0.3 0.9,1.2 1.4,-0.8 -0.3,-3.7 -1.4,-1.6 1.6,-1.3 0.6,-1.7 1.6,-0.2 0.7,1.0 2.3,-0.2 1.6,3.4 1.4,-0.3 1.5,0.8 -0.1,1.5 1.6,1.2 3.5,-1.5 -0.1,-1.5 0,0 2.3,-0.4 0.6,0.6 -0.3,0.8 2.1,0.3 0.4,-1.1 3.1,2.5 2.4,-1.8 0.8,1.7 3.2,1.1 0.9,2.1 -0.5,3.4 -1.3,0.2 -1.5,4.5 1.6,-0.4 0.3,1.2 0.9,-1.1 2.8,-0.3 0.3,-1.0 1.4,0.9 1.1,-0.7 2.7,2.0 1.4,3.3 0,0 1.3,-0.2 1.0,2.6 4.0,3.1 2.6,1.1 0.1,2.6 0.8,0.7 -0.4,2.7 2.1,-1.8 1.5,1.0 -0.8,0.1 -1.2,2.0 3.9,-0.1 0.2,2.4 0.9,1.4 -0.5,1.2 1.8,-1.5 2.4,1.5 -0.3,1.4 -2.2,2.5 0,0 -1.6,-0.3 -1.2,0.9 -3.0,-2.2 0.1,-0.9 -1.4,-0.0 -2.0,-2 -1.3,0.8 1.3,1.6 -0.2,0.6 0.8,-0.1 -1.1,1.4 -4.8,-3.1 -1.9,-2.5 -2.4,-1.3 -1.1,0.8 -1.4,-2.6 -2.0,-0.9 -0.9,-1.7 -2.1,-0.8 -0.9,-1.4 -2.4,-0.1 -1.4,-1.4 -0.7,0.5 -1.6,-2.8 -7.0,-4.0 -1.1,1.0 0.1,2.4 -3.6,-1.7 0.5,-1.8 -0.7,-1.0 -10.7,-2.7 -0.7,-1.1 -0.6,0.4 0.4,0.7 -4.5,-1.2 1.2,-0.2 -0.9,-0.4 -2.4,-0.1 0.3,0.5 -2.1,-0.5 -2.1,0.8 -1.5,1.5 -1.8,0.3 -1.5,1.5 -5.9,3.0 -0.8,1.0 0.7,-0.1 -3,2.8 0.8,1.0 -1.9,2.5 0.4,2.0 -8,4 -2.0,3.5 -0.3,3.3 -3.1,3.5 -0.2,1.4 0.7,1.4 -4.3,2.9 -0.9,1.7 -2.3,0.5 -4.2,2.8 -4.4,0.9 -1.4,1.2 -1.5,-0.5 -3.3,2.0 -1.8,-0.3 -1.5,1.6 -4.7,-1.1 -1.2,1.0 -1.0,-0.2 -2.1,-5.2 0.1,-1.5 0.8,-0.9 2.5,-0.8 0.4,-3.2 4.4,-2.3 0.8,-1.8 -0.2,-2.1 2.2,-0.9 0.3,-1.7 z"/><path id="IT-25" title="Lombardia" d="m 186.1,35.7 0.5,0.6 -0.9,1.4 0.3,1.1 2.1,0.4 0.5,1.6 2.2,0.6 0.7,-1.0 2.2,0.9 1.1,-0.5 1.9,1.5 0,0 1.1,2.7 3.8,0.3 2.6,1.8 1.0,1.4 -0.2,2.2 0.8,1.4 -1.5,1.6 -2.0,0.1 -2.6,2.5 2.6,1.3 0.6,2.0 -0.9,1.3 0.8,0.5 0.5,2.1 -2.3,4.2 1.1,1.6 -0.9,4.4 -3.3,4.1 0.4,1.9 -1.2,0.9 -0.6,1.8 0.1,1 1.7,0.3 -0.2,2.0 1.3,2.0 -0.9,2.1 0.5,4.3 2.2,0.9 -0.7,1.4 0.4,0.9 1.3,0.1 2.1,-1.3 2.0,-0.1 0.5,-2.1 4.0,-0.8 1.3,1.0 0.4,-0.9 4.0,0.8 0,0 -11.1,16.5 1.1,11.8 -0.4,2.0 0.8,0.2 0.7,-0.8 2.5,1.1 -1.0,2.6 1.0,0.8 -1.3,1.0 1,1.5 -0.7,1.9 1.5,0.4 0.5,1.0 2.4,-2 2.0,1.9 1.1,2.4 2.6,0.6 0.1,0.7 1.8,0.5 -0.1,1.3 2.9,1.3 0.8,1.2 -0.4,1.7 1.6,-0.3 0.9,0.6 -1.0,1.9 2.3,1.9 1.2,0.2 0.2,-1.3 1.4,0.7 0.9,-1.7 3,1.1 -1.3,1.0 0.4,1.0 -0.6,1.6 3.1,1.2 1.4,-0.8 0.0,2.5 8.0,4.3 0.2,1.0 0,0 -6.2,-0.9 -1.7,1.6 -1.5,-1.1 -0.4,0.7 -3.9,0.3 -0.6,0.7 -1.2,-1.5 -2.6,-0.6 -0.9,0.8 -3.1,-0.3 -2.3,1.2 -0.2,1.2 -1.4,-0.2 -1.5,0.9 0.2,-0.6 -1.3,0.2 -0.1,-0.8 -0.9,0.2 -0.8,-0.8 -4.4,-0.7 -1.0,-3.1 -1.8,2.1 -0.5,-1.6 -2.9,4.1 -1.4,0.8 -3.9,0.2 -4.6,-2.2 -1.5,-2.9 -2.5,1.3 -2.8,-2.3 -1.6,-0.0 -3,-2.4 -2.2,0.1 -0.5,-0.9 -3.3,1.6 -0.8,-1.7 -1.5,0.3 -0.1,-1.2 -1.5,-1.2 0.4,-1.5 -1.9,-2.5 -0.9,-0.1 -2.9,2.2 0.4,-2.2 -0.7,-0.6 -1.8,1.5 1.1,1.6 -0.2,1.2 -0.9,0.4 -1.0,-1.5 -1,-0.0 -0.9,3.2 -0.4,-1.9 -1.9,-0.9 -0.8,-1.5 -0.9,0.3 0.8,1.1 -0.5,1.0 -1.6,1.4 -4.2,-1.8 0.1,-2.5 -0.9,-1.2 -0.7,1.9 -1.3,0.5 -1.6,-2.1 -0.7,0.1 0.6,2.7 -1.1,1.0 -1.6,-1.9 -2.8,0.7 -0.3,0.8 -1.2,-0.2 0.1,0.7 -2.0,1.8 0.1,2.2 -1.6,1.8 -1.4,4.0 -1.7,0.4 0.6,1.0 -1.2,1.6 1.8,1.6 0.7,-0.4 1.0,0.8 1.1,3.2 -3.9,3.9 0.3,1.1 1.7,0.9 0.1,1.2 -0.9,1.0 0.7,1.4 -3.2,0.9 -1.3,-2.5 0.3,2.0 -1.8,0.1 0,0 -0.4,-2.9 0.6,-2 -2.3,-1.7 -0.5,-2.9 -2.7,0.8 -0.5,-0.8 -1.5,-0.1 0.1,-0.9 -1.2,-1.2 0.9,-1.0 -0.7,-2.0 -1.0,0.1 -1.7,-1.5 -1.6,-2.5 0.2,-1.7 -0.7,-1.3 -0.5,-0.4 -1.3,0.6 -1.3,-1.8 -0.3,-3.2 -2.9,0.2 -1.6,1.6 -1.6,0.2 -0.2,1.0 -1.3,-0.2 -0.2,-1 -1.1,0.2 -0.4,-1.2 -0.5,1.8 -3.3,-1.9 -0.3,-3.5 -1.4,-1.3 0.3,-1.3 -1.1,-0.3 -0.6,-1.5 -1.4,-0.4 -0.6,-1.0 1.8,-2.6 -2.2,1.0 -0.5,-0.4 1.2,-0.4 -1.2,-1.2 0.9,-0.8 -0.6,-0.4 1.3,-0.2 -1.6,-0.5 -0.0,-0.5 1.0,0.1 -0.3,-1.8 -2.0,-1.0 0.7,-1.5 1.4,-0.5 -0.6,-1.8 1.5,-1.4 1.2,1 2.8,-0.1 0,0.9 1.1,0.7 0.5,2.5 1.5,-0.1 1.1,-0.6 0.6,-2.1 1.9,-1.2 -2.2,-2.3 1.5,0.3 1.2,-0.8 1.6,0.4 2.1,-1.1 -0.9,-2.8 -0.9,0.1 -1.1,-3.9 -3.5,-1.8 -1.3,-4.9 0.4,-1.7 -1.9,-1.6 -0.3,-1.3 1.5,0.3 -0.8,-1.8 0.4,-1 -2.0,-0.4 0.6,-2.7 -3.0,-0.9 -2.0,-3.8 0.1,-1.5 2.1,-2.4 -1.3,-5.0 8.1,-8.8 -1.0,-4.5 0.6,-1.6 0,0 1.2,-1.3 0.8,1.4 1.3,0.7 1.2,-0.5 2.4,1.9 0.0,1.1 -1.1,0.6 -2.5,4.4 2.4,0.0 1.9,2.0 1.4,0.3 0.0,1.7 2.5,4.9 -1.8,2.6 2.3,-0.9 2.1,0.8 -0.3,1 2.3,0.1 0.7,-3.7 2.0,-2.2 -0.7,-0.1 -0.8,-1.6 -2.1,-0.5 -0.3,-2.3 -1.2,-0.7 1.9,-1.7 -1.1,-3.3 0.5,-1.0 3.0,-1.1 0.6,-1.6 -0.8,-2.4 2.4,-1.2 2.1,-2.4 1.1,-0.1 2.0,-4.7 1.5,-0.1 0.2,-2.4 2.3,-4.4 -0.1,-2.0 -1.1,-1.2 0.3,-3.2 -1.7,-2.1 1.3,-1.1 0.2,-2.9 4.4,-1.0 0.6,1.8 1.9,1.3 1.3,-2.4 1.4,-0.7 -0.2,1.5 -0.7,0.3 1.0,0.6 -0.1,7.7 1.9,0.6 1,3.0 1.5,1.8 0.5,-0.4 3.9,1.6 2.1,-1.2 1.8,0.8 1.4,-4.3 2.1,1.1 6.6,-3.4 1.0,1.1 1.4,-1 2.3,2.0 -0.8,2.1 1.0,0.7 -0.1,2.2 2.9,1.5 -0.5,2.6 1.2,0.8 1.1,-0.8 1.6,0.3 2.8,-2.4 -1.1,-2.6 -2.6,-3.0 0.1,-1.5 1.1,-0.7 0.5,-1.8 1.2,-0.2 0.2,-1.5 -0.9,-0.2 -0.4,-1.2 -3.1,0.6 -2.1,-1.7 0.7,-1.5 -0.6,-1.1 0.6,-3.0 -0.5,-1.5 2.9,-3.1 0.1,-2.2 1.4,0.4 3.0,-1.6 1.3,0.6 1.2,-1.2 0.5,1.2 z"/><path id="IT-57" title="Marche" d="m 359.2,257.9 -2.8,-1.6 -1.2,-2.3 -2.1,-1.7 -0.8,1.5 -2.1,-0.2 -7.6,-4.2 -20.5,-18.0 -5.5,-2.9 -2.4,-0.2 0,0 -1.2,3.1 0.2,4.1 -2.5,1.0 -0.5,2.1 -2.9,-0.4 0.2,-1.0 -0.8,-0.3 -0.7,-2.5 -2.7,1.1 0,-2.1 -2.3,-1.3 0,0 -0.4,1.4 -3.8,-0.4 0,0 -0.0,-0.1 0,0 1.2,2.2 -1.6,-0.0 -0.3,-0.8 -2.0,0.8 -1.0,3.5 -2.6,2.1 -0.2,2.2 0,0 0.1,0.1 0,0 2.1,0.9 2.3,3.1 -2.1,0.0 0.3,2.2 -0.9,-0.1 -0.6,-3.7 -0.4,3.1 -1.2,0.7 -1.5,-0.3 0.2,0.8 -0.9,1.1 -2.3,0.8 1.4,2.2 0,0 0.7,1.2 3.1,-0.0 0.3,0.6 2.1,-1.7 1.9,-0.1 -0.5,0.8 0.5,1.4 -2.9,2.7 1.4,1.4 1.4,-0.7 1.3,1.7 1.4,-2.1 1.0,0.1 0.8,1.4 0.9,0.1 0.3,-0.9 0.9,0.4 6.4,7.3 2.1,-1.3 2.2,0.8 1.3,-2.7 2.1,0.6 -0.4,2.0 0.9,0.8 -1.8,1.7 0.1,0.8 2.3,3.0 0.4,2.9 -0.6,0.7 1.9,1.3 0.7,3.4 1.4,0.7 -0.1,2.9 -1.6,1.6 0.7,1.5 2.1,0.4 0.6,1.7 -0.2,2.8 0.8,2.1 -0.9,0.7 0.9,1.9 -0.6,1.5 2.7,1.6 0.2,0.9 1.1,0.1 0.1,4.0 1.2,-1.4 0.0,-1.7 1.3,0.8 1.4,-1.4 3.0,2.3 2.5,3.9 2.7,-0.6 1.2,-1.8 1.4,3.6 -0.2,1.8 -0.9,1.9 -0.4,-0.8 -1.9,0.8 -0.2,2 0,0 3.3,0.8 0.5,-1.2 1.1,-0.1 3.7,3.2 0,0 1.7,0.5 1.9,-1.3 0.6,0.5 0.6,-2.4 2.4,-0.4 0.3,-2.5 1.3,-1.5 0.2,-1.4 2.1,1.1 2.4,-1.1 0.7,0.9 1.4,-0.2 2.0,-0.9 0.5,-2.2 0.7,-0.4 2.8,-0.2 2.1,-1.4 5.0,-1.1 0,0 -2.2,-6.7 -1.5,-8.1 -11.3,-27.9 0.2,-3.2 z m -61.2,-3.2 -0.7,-0.3 0,0 -0.2,-0.1 0,0 0.3,-0.7 0.6,0.3 0,0 0.1,0.5 0,0 -0.1,0.2 z"/><path id="IT-67" title="Molise" d="m 419.1,361.3 5.4,2.9 5.0,0.9 4.0,4.3 3.2,1.2 0,0 0.2,3.3 -2.1,3.1 0.8,2.9 -1.0,1.6 1,1.2 -0.8,0.5 1,1.5 1.9,0.8 -2.0,1.0 -0.7,1.5 -0.8,-0.8 -0.0,0.8 -2.1,0.9 -1.3,2.4 -3.2,-1.5 -1.2,1.5 0.9,0.8 -0.7,5.6 1.6,0.7 2.0,2.3 0,0 -3.0,2.1 -2.6,0.2 -1.6,1.6 -4.0,-1.7 -1.7,2.9 -1.9,0.6 -0.9,-0.7 -2.0,0.2 0.0,0.9 -1.1,0.1 -2.2,1.9 -1.2,-1.8 -3.3,0.5 -1.2,-0.9 -0.4,-1.6 -8.0,-2.3 -2.0,-1.1 -0.3,-1.0 -1.8,-0.0 -0.2,-0.8 -3.5,-0.1 -0.4,1.4 -2.3,-1.9 -2.2,4.0 1.4,1.7 0.3,2.4 -1.3,-0.9 -2.1,0.5 -2.1,-2.5 0.3,-1.5 -1.5,-0.8 0,0 0.8,-1.3 -1.0,-0.8 2.9,-2.1 -1.2,-1.1 0.8,-0.2 0.2,-0.9 -1.4,-1.5 0.7,-0.6 -0.1,-1.4 -1.4,-3.6 -2.0,-1.7 0,0 2.1,-0.5 1.9,1.0 0.3,-1.5 1.3,-0.1 0.9,-2.4 1.2,-0.1 0.8,2.1 0.6,-2.6 2.0,-0.1 0.7,-1.2 0.2,1.0 0.8,0.1 0.4,-1.0 -1.5,-0.9 -1.2,-3.5 0.4,-0.9 2.2,-0.1 1.4,-2.2 2.9,-2.4 0.9,1.3 1.2,-0.1 1.0,2.2 0.6,0.2 1.1,-1.3 2.4,1.6 1.1,1.1 1.1,4.3 -0.8,0.6 2.0,0.4 4.8,-5.1 1.7,-3.7 2.4,-1.7 0.8,-3.1 2.3,-2.8 2.8,-2.0 -0.9,-0.8 1.2,-1.9 0,0 z"/><path id="IT-21" title="Piemonte" d="m 93.3,47.1 1.6,1.6 -0.6,1.5 0.7,2.0 -0.4,4.7 -1.9,2.5 1.5,2.5 -0.7,1.2 1.4,1.3 3.0,1 2.2,4.0 1.5,0.6 -0.3,1.1 0.8,1.4 1.8,-0.1 2.0,1.6 1.6,-0.1 0,0 -0.6,1.6 1.0,4.5 -8.1,8.8 1.3,5.0 -2.1,2.4 -0.1,1.5 2.0,3.8 3.0,0.9 -0.6,2.6 2.0,0.4 -0.4,1 0.8,1.9 -1.5,-0.3 0.3,1.3 1.9,1.6 -0.4,1.7 1.3,4.9 3.5,1.8 1.1,3.9 0.9,-0.1 0.9,2.8 -2.1,1.1 -1.6,-0.4 -1.2,0.8 -1.5,-0.3 2.2,2.3 -1.9,1.2 -0.6,2.1 -1.1,0.6 -1.5,0.1 -0.5,-2.5 -1.1,-0.7 0.0,-0.9 -2.8,0.1 -1.2,-1 -1.5,1.4 0.6,1.8 -1.4,0.5 -0.7,1.5 2.0,1.0 0.3,1.8 -1.0,-0.1 0.0,0.5 1.6,0.5 -1.3,0.2 0.6,0.4 -0.9,0.8 1.2,1.2 -1.2,0.4 0.5,0.4 2.2,-1.0 -1.8,2.6 0.6,1.0 1.4,0.4 0.6,1.5 1.1,0.3 -0.4,1.3 1.4,1.3 0.3,3.5 3.3,1.9 0.5,-1.8 0.4,1.1 1.1,-0.2 0.2,1.0 1.3,0.2 0.2,-1.0 1.6,-0.2 1.6,-1.6 2.9,-0.2 0.3,3.2 1.3,1.8 1.3,-0.6 0.5,0.4 0.7,1.3 -0.2,1.7 1.6,2.5 1.7,1.5 1.0,-0.1 0.7,2.0 -0.9,1.0 1.2,1.2 -0.1,0.9 1.4,0.1 0.5,0.8 2.7,-0.8 0.5,2.9 2.3,1.7 -0.6,2 0.4,2.9 0,0 -0.5,-0.2 0.0,5.1 0,0 0.1,1.4 -3.5,1.5 -1.6,-1.2 0.1,-1.5 -1.5,-0.8 -1.4,0.3 -1.6,-3.4 -2.3,0.2 -0.7,-1.0 -1.6,0.2 -0.6,1.7 -1.6,1.3 1.4,1.6 0.3,3.7 -1.4,0.8 -0.9,-1.2 -2.3,0.3 0.0,1.5 -1.7,1.5 0.4,1.5 -1.3,0.5 -0.4,-2.2 -0.9,0.0 0.3,-0.9 -1.8,-2.9 -1.6,-0.2 -3.5,-0.2 -1.2,1.9 0.8,0.9 -2.7,3.0 -1,-0.8 -3.2,0.1 -0.3,-0.9 -1.1,1.7 -1.5,-1.0 -0.8,0.4 -0.6,2.2 -1.3,0.7 -3.1,-2.6 -1.9,-0.2 -1.0,-1.5 -1.6,1.2 0.0,1.9 -1.4,0.5 1.4,3.3 -0.8,1.9 -3.2,1.8 0.2,2 -1.0,1.6 -1.3,-0.2 -0.3,2.2 -1.5,-0.7 -0.4,0.5 0,1 1.3,1.3 -1.2,1.2 0.9,1.1 -0.7,1.7 1.5,1.3 0.1,1.9 -1.2,1.6 -1.4,0.5 -1.5,-1.0 -1.8,1.5 1.3,0.6 0.6,0.9 -0.4,0.7 -2.0,-0.7 -1.6,0.9 -9,-2.9 -1.9,1.1 -0.5,1.5 0.9,1.4 1.3,-0.0 -1.6,1.7 -0.8,-0.3 0,0 0.1,-1.5 -2.4,-3.3 0.9,-3.1 -2.5,-0.1 -0.9,1.9 -2.9,-0.5 -5.2,2.2 -1.6,-0.3 -0.3,1.3 -1.6,-0.9 -1.8,0.7 -0.7,-2.2 -3.3,0.4 -1.8,-2.2 -1.3,0.2 -1.6,-2.3 -1.3,-0.4 -0.9,0.5 -3.0,-2.1 -2.7,0.4 -1.3,-0.9 -0.6,-3.2 -1.9,-1.1 0.2,-1.0 -1.7,-1.6 -0.2,-1.3 -1.8,-0.8 0.3,-4.2 2.9,-0.6 -3.6,-3.6 -1.1,-3.6 1.1,-1.7 1.6,-0.2 1.2,-1.2 0.9,-3.2 0.9,-0.1 -1.0,-2.4 0.7,-1.7 1.3,-1.0 4.6,0.3 -0.5,-1.9 -1.9,-1.1 -0.6,-3.2 -1.1,-1.2 1.2,-2.5 -0.9,-1.1 -3.6,-1.6 -1.3,1.3 -2.4,-0.5 -3.1,-2.1 -0.2,-0.9 -2.5,-1.0 0.2,-2.1 -0.6,-0.3 1.1,-1.5 -1.4,-2.2 0.7,-0.6 -0.3,-1.2 -3.6,-0.4 -0.6,-3.8 -0.9,-0.3 -0.9,-2.2 2.4,-1.5 0.4,-1.1 3.2,0.2 1.3,-1.6 4.1,1.7 0.1,0.6 2.3,-0.7 0.0,-2.3 2.7,-0.1 0.4,-1.5 2.4,-2.1 1.3,0.2 1.2,-0.7 1.0,1.1 2.1,-2.6 0.7,0.1 0.5,-2.6 -1.3,-3.3 1.0,-0.2 0.4,-1.5 1.3,-0.7 0.0,-1.5 1.2,-1.8 -3.7,-2.0 -0.6,-2.5 0,0 1.8,-3.6 0.4,2.9 0.9,-0.7 3.1,1.1 2.4,-3.0 2.8,-0.1 1.9,-0.9 1.0,0.7 3.5,-2.8 0.9,-1.6 1.2,-0.4 1.9,0.5 2.1,-1.1 2.0,1.2 0.1,0.9 1.4,-0.7 2.0,1.3 2.3,-0.4 0.7,0.6 4.9,-3.5 2.6,-0.2 1.0,0.7 0.7,-3.0 1.2,-0.2 -1.8,-3.7 1.7,-2.8 -0.4,-1.2 -1.6,-0.6 -1.7,-3.1 0.7,-5.0 -0.7,-4.1 0,0 0.7,-0.7 0.1,-3.6 1.5,-1.6 4.2,0.1 1.1,-1.2 0.1,-1.5 1.2,-0.8 -0.7,-2.1 0.5,-2.0 3.7,-0.9 0.6,-1.4 1.9,-1 -0.1,-1.5 0.8,-1.1 -1.4,-3.3 -1.5,-1.8 -1.7,-0.8 3.2,-3.2 1.4,0.4 2.2,-0.9 0.7,-1.9 1.9,-0.8 0.0,-1.4 2.4,-1.0 0.5,-1.5 -1.4,-0.7 0.8,-1.2 1,-0.1 2.0,-1.9 z"/><path id="IT-75" title="Puglia" d="m 481.7,369.2 3.9,0.8 4.9,3.7 -0.7,1.5 1.3,2.4 -0.1,1.6 -0.4,2.0 -1.4,1.4 -4.7,3.2 -0.3,1.1 -8.4,5.2 0.1,5.7 2.5,4.7 3.5,2.5 9.4,4.3 3.0,2.3 8.1,3.0 8.4,5.1 9.9,3.2 1.7,1.4 1.8,0.1 0.5,0.8 0.9,-0.4 0.2,0.7 4.2,1.8 6.8,2.2 9.6,6.3 3.6,4.4 2,0.9 4.6,4.3 11.8,4.7 6.2,4.3 5.6,0.7 1.1,1.9 -0.5,0.8 3.6,0.1 -0.3,1.1 1.6,1.9 -0.5,2.0 2.2,2.8 2.4,2.2 5.9,3.3 9.4,10.1 2,4.5 -0.2,1.8 1.6,3.6 1.4,0.9 -0.5,0.5 0.6,1.6 -1.7,1.6 -0.5,2.4 -2.0,1.4 -1.4,3.2 -0.9,4.6 0.0,6 -1.1,1.6 -1.2,0.3 -3.8,-3.0 -5.1,-1.1 -6.4,-5.2 -2.7,-4.7 1.2,-0.5 -0.2,-1.9 -2.1,-1.1 1.5,-1.1 0.4,-2.5 -4.6,-5.7 0.3,-1.9 -1.0,-2.2 -2.5,-2.1 -9.1,-1.3 -8.8,0.7 -3.1,-2.3 -2.7,-0.3 -8.7,-5.0 -1.1,0.0 0.3,-0.9 1.9,-0.8 0.2,-1.5 -1.4,-1.6 -2.3,0.1 -0.6,-1.6 -2.9,-1.1 -3.8,0.6 -3.5,1.9 -3.6,3.2 -2.1,3.5 0,0 -0.8,-1.9 -1.8,-1.5 -0.4,-1.6 -1.8,-1.1 -1.7,0.4 -0.9,-0.9 1.0,-2.1 -1.2,-0.9 0.4,-0.8 -1.0,-1.0 0.4,-2.9 0.6,-0.5 -0.9,-2.1 0.9,-3.6 -1.2,-1.4 1.0,-0.5 -2.9,-2.2 -0.5,0.8 -1.2,-0.7 -0.2,-1.0 -1,0.6 -1.7,-0.7 -0.1,1.7 -0.8,-1.3 -1.0,0.3 0.1,1.9 -2.0,-2.5 -3.5,4.0 -1.5,-0.4 -0.8,-1.7 -6.6,-6.0 -2.9,-6.5 -2,-0.7 -2.1,2.0 -1.6,-1.5 -5.6,-2.4 -0.6,-1.1 1.5,0.3 1.8,-2.0 -0.3,-1.6 0.6,-1.0 -1.8,-1.5 -0.6,0.4 -0.6,-2.4 -1.3,-0.3 -0.2,-1.0 -1.7,-0.3 -2.3,-1.6 -1.4,0.8 -0.8,-0.3 0.2,0.8 -1.7,0.4 0.1,0.9 -1.7,0.9 -1.5,-1.1 -2.5,0.9 -4.7,-0.8 -1.9,0.4 -1.4,1.2 0.3,1.2 0,0 -3.6,-1.8 -1.6,0.1 -2.1,-1.8 -1.7,1.3 -2.8,-1.2 -1.1,0.9 -2.0,-1.4 -0.7,-1.9 -1.6,-0.8 0.8,-2.0 2.0,-1.2 -0.8,-2.4 1.6,-1.0 -1.3,-1.4 -1.6,0.3 -1.0,-1.5 -3.4,0.1 -0.2,-2.2 -3.0,-1.1 -0.6,-2.6 0.8,-1.2 1.1,-0.2 -0.5,-1.2 0.8,-0.8 -0.2,-0.8 -2.9,-0.8 -1.8,-2.8 0,0 -2.0,-2.3 -1.6,-0.7 0.7,-5.6 -0.9,-0.8 1.2,-1.5 3.2,1.5 1.3,-2.4 2.1,-0.9 0.0,-0.8 0.8,0.8 0.7,-1.5 2.1,-1.0 -1.9,-0.8 -1,-1.5 0.7,-0.5 -1.0,-1.2 1.0,-1.6 -0.8,-2.9 2.1,-3.1 -0.2,-3.3 0,0 10.4,0.6 1.2,1.0 3.2,0.1 9.9,-1.9 3.4,0.9 4.1,-0.2 12.7,-2.3 z"/><path id="IT-88" title="Sardegna" d="m 89.8,559.7 0.6,1.0 2.3,-0.7 2.1,3.6 -1.1,5.6 -1.6,0.9 -2.8,-5.3 -0.6,-2.9 1.1,-2.2 z m -3.2,-4.5 -0.1,5.5 -1.6,0.4 -1.4,-0.9 0.1,-1.7 -1.5,-0.9 2.4,-2.2 2.1,-0.1 z m 73,-115.8 0.6,0.5 -2.5,1.6 -0.5,-0.4 2.8,-2.3 -0.3,0.6 z m -77.1,-3.9 -0.6,0.6 -0.1,-1 0.6,0.4 z m 4.8,-9.7 0.3,1.1 1.2,0.8 -0.7,0.7 -0.2,2.0 -2.7,-1.3 -2.2,3.0 0.7,-0.2 0.8,1.6 -0.5,1.4 -2.3,-0.3 1.0,-2.5 -0.6,-0.1 0.2,-1.1 1.5,-0.6 0.9,-1.6 1.0,-0.1 -0.5,-1.9 2.3,-1.0 z m 59.0,-8.3 0.9,1.5 -1.2,2.1 0.9,0.2 -2.3,0.3 1.1,-4.3 0.7,0.1 z m -6.7,-0.7 1.0,0.6 -1.1,0.9 0.1,-1.6 z m -5.7,-0.5 2.5,2.1 -0.8,1.9 1.1,1.1 2.5,-0.2 0.3,-1.3 1.2,-0.1 0.5,1.8 0.6,0.1 2.0,0.0 -1.0,1.3 1.3,0.2 0.9,1.4 -0.2,2.9 1.5,-2.3 -0.3,-1.1 2.5,0.1 0.3,-1.1 0.9,1.2 -0.6,0.3 1.0,0.1 -0.3,1.2 1.3,-0.1 0.3,1.1 -1,1.5 -0.6,-0.7 -0.4,0.4 0.3,1.4 -0.8,0.5 -0.8,3.0 0.8,-0.0 0.2,-1.4 1.8,-0.5 -0.5,2.2 1.3,0.1 -0.0,-0.8 0.5,0.3 0.5,-0.8 3.5,1.8 -0.7,0.7 -2.2,-1.1 -1.4,1.2 0.6,1.0 -1.3,1.7 0.3,0.9 -2.7,-0.4 -0.9,0.4 0.9,0.5 2.1,0.1 0.9,0.3 -0.4,0.4 1.0,1.1 1.5,-2.0 1.3,0.2 -1.5,1.9 2.2,1.1 -0.5,1.4 1.7,-0.4 2.1,1.4 -0.7,0.6 -1,-0.4 -0.4,1.0 0.6,0.8 -0.9,0.5 -0.1,1.3 2.4,2.3 -0.2,2.7 2,2.5 -0.6,2.6 0.6,2.5 1.8,1.7 0.3,1.8 1.7,1.0 -3.1,9.2 -3.9,3.4 -3.2,5.5 0,3.4 1.4,4.0 2.0,2.7 2.1,1.2 -0.0,1.7 -2.4,5.8 0.2,2.1 1.2,0.3 0.2,0.8 -1.8,1.9 0.7,3.2 -1.4,4.7 0.5,4.7 -1.6,4.0 0.5,5.5 -1.2,4.4 0.7,2.7 -2.5,7.5 0.3,2.1 1.5,1.2 -1.6,0.5 -1.1,1.6 -1,4.6 0.8,1.3 -1.1,3.0 -1.0,0 -0.9,1.1 0.1,1.3 -1,-0.8 0,-1.4 -0.9,-0.4 -2.4,0.8 -7.2,-6.0 -4.4,-0.9 -2.1,1.3 -0.5,1.7 -2.6,-2.1 -2.1,0.9 -2.5,3.2 -0.1,4.2 1.5,2.0 -1.2,4.7 -0.6,-0.6 -0.7,0.4 -7.1,7.1 -1.3,-0.1 -1,-1.3 -0.7,0.8 -1.3,-2.0 -2.8,-1.6 -0.2,1.0 -2.8,0.7 0.3,1.0 -1.1,0.6 0.5,1.3 -0.9,0.3 0.3,-2.0 -2.0,0.1 0.7,-3.3 -2.5,-2.3 -0.4,-4.3 -1.7,-1.0 -2.9,-0.1 0.5,-1.9 -0.7,-1.6 -0.6,-0.6 -1.1,0.6 -0.0,-2.9 -3.5,-3.7 -0.1,-1.0 3.0,-2.8 0.5,-1.4 -0.8,-2.7 -1.4,-0.5 -0.2,-1.7 -0.8,-0.7 2.0,-3.1 -0.1,-1.2 -1.5,-1.0 0.2,-1 3.4,-5.0 0.9,-3.7 -1.1,-2.1 0.4,-2.0 -0.6,-1.1 0.5,-1.6 -0.5,-3.3 0.7,-0.8 1.8,3.1 0.8,-0.1 0.3,-2.1 1.6,-2.8 0.4,-4.3 -1.5,-2.8 -2.4,-0.1 -1.9,2.0 -2.2,-2.1 -0.2,-4.5 1.0,-3.0 -1.8,-1.1 1.3,-1.1 0.5,0.7 2.1,-0.7 1.8,-2.0 0.1,-1.5 -1.8,-4.9 1.3,-7.3 -1.2,-2.3 -2.0,-1.1 -1.9,-0.1 -0.2,-1.4 1.1,-3.4 -1.4,-5.4 -1.8,-0.6 -1.9,-6.0 -2.7,0.5 -0.1,0.9 -2.0,0.1 -0.0,-1.8 0.8,-0.5 -1.1,-1.1 -1.8,2.9 -0.6,-0.2 -0.3,-3.0 2.0,-0.9 1.1,-3.2 -1.6,-0.7 -2.2,-2.5 1.8,-2.4 -0.3,-1.9 1.4,-1.2 1.8,-5.1 -2.4,-3.3 1.4,-2.4 1.7,1.2 -0.2,2.9 4.1,4.4 3.0,0.6 2.3,-0.4 1.9,1.4 5.4,-0.8 6.8,-5.5 5.0,-0.7 4.1,-4.7 -0.1,-1.3 3.1,-1.9 4.1,-5.6 1.6,-0.9 0.7,0.7 2.6,-0.5 0.6,-1.4 1.7,-0.1 0.8,-0.9 -0.8,-1.9 0.7,-2.2 -1.3,-0.2 0.1,-0.9 1.1,0.7 1.4,-0.8 0.1,0.9 1.8,-1.8 z m 9.7,-0.7 1.5,2.4 -0.4,1.1 -3.0,0.5 -0.5,-1.3 1.5,-1.1 -0.1,-1.1 0.7,0.7 0.3,-1.2 z"/><path id="IT-82" title="Sicilia" d="m 303.0,790.1 4.9,0.5 0.3,1.7 -6.0,-1.6 0.8,-0.6 z m -29.4,-83.0 2.3,1.2 0.6,-0.4 2.0,1.7 0.1,2.4 -1.4,1.7 -1.9,-0.1 -3.3,-4.1 0.1,-1.6 1.4,-0.8 z m 25.2,-64.5 -0.9,-3.3 1.3,-0.7 -0.4,4.0 z m -7.1,-7.2 0.8,1.5 1.1,-0.4 1.1,0.8 -0.0,1.1 -0.7,0.2 -0.9,-1.0 -2.5,0.3 -0.8,-1.4 2.0,-1.1 z m -12.5,-2.4 1.3,2.9 -2.5,-0.8 -0.7,-2.2 1.9,0.1 z m 179.1,-20 2.4,1.6 2.7,0.7 -2.8,0.8 -1.5,1.2 -0.8,2.9 0.8,-0.2 -4.1,7.6 -9.8,12.7 -0.0,1.6 -1.7,1.1 0.2,0.9 -3.3,4.3 -0.4,1.1 0.7,1.7 -1.0,3.6 -1.2,1.6 0.1,3.5 -3.1,3.0 -1.5,2.9 0.6,10.6 3.3,2.1 1.5,0.4 0.7,-0.7 2.6,3.2 -0.6,0.8 -0.9,-0.7 -0.2,1.7 -0.5,-1.9 -1.1,0.4 -0.3,3.2 1,2.3 1.4,-0.5 0.6,0.8 -0.8,-0.3 -0.4,0.6 0.7,1.6 1.4,0.8 1.7,-0.1 0.1,3.1 -1.1,-0.4 -0.1,1.6 0.7,0.4 1.0,-0.6 1.4,2.5 -1.8,-0.8 -1.3,0.5 -0.7,2.2 -2.7,0.6 -2.9,3.2 -3.0,7.3 2.3,7.3 -0.5,1.1 -0.8,-0.5 -1.8,1.7 -3.2,-3.4 -3.1,0.6 -2.2,-1.9 -1.9,-0.5 -5.0,1.7 -1.9,-1.1 -2.7,-0.0 -2.7,-2.5 -2.5,-1 -4.9,-0.6 -1.8,-1.9 -0.8,-3.5 -3.2,-5.8 -6.0,-6.1 -5.0,-2.4 -4.9,-1.1 -5.3,0.1 -3.2,0.8 -1.5,-0.4 -2.7,-2.8 -3.7,-0.3 -4.6,-2.9 -0.9,-2.1 -4.5,-3.7 -1.5,0.4 -0.8,-0.8 -3.1,-0.1 -2.4,-2.5 -4.1,-2.0 -1.3,-1.6 -1.3,-0.1 -1.1,-2.4 -4.4,-4.3 -4.6,-0.8 -2.9,0.7 -3.0,-4.5 -2.3,-0.8 -7.1,-0.2 -5.4,1.3 -3.4,-5.2 -2.2,-1.4 -2.3,0.1 -2.2,-2.6 -0.2,-2.9 -2.4,-3.7 1.9,-1.1 1.1,-3.6 -1.4,-2.1 2.1,-2.9 -0.2,-2.0 1.2,-0.6 -1.5,-1.6 1.5,-0.4 2.7,-3.0 1.7,0.3 1.8,-0.7 1.2,-1.2 -0.1,-1.1 2.6,0.1 1.4,-1.9 -1.1,-2.2 0.8,-1.1 0.3,0.8 1.6,-0.2 0.1,1.8 1.1,1.1 -0.0,1.6 1.1,2.0 4.6,3.5 4.5,-1.2 4.6,-2.9 -1.3,-3.3 1.0,-0.2 0.7,-1.2 -0.4,-0.7 1.6,-1.4 4.3,1.5 2.1,-0.9 0.4,-1.4 1.8,0.3 2.2,-1.6 0.7,1.7 1.9,1.1 0.5,2.1 -0.7,1.1 1.1,1.5 3.3,0.9 2.2,-0.6 0.9,-1.1 1.5,0.4 0.0,3 1.6,1.8 7.4,4.0 2.8,0.4 4.9,-1.3 4.3,-2.5 3.9,-0.8 2.2,1.5 2.2,0.2 1.9,-1.0 7.2,1.4 4.4,-0.6 2.8,-1.6 2.7,0.4 8.2,-2.6 5.6,-6.0 2.2,0.9 5.1,-1.4 1.2,-1.3 2.9,2.5 3.8,0.0 0.8,1.6 2.0,0.4 3.9,-2.1 2.2,-2.5 1.1,-3.2 -0.9,-1.8 0.8,-0.1 0.7,1.5 -0.5,2.1 2.2,0.6 5.7,-1.6 6.3,-4.2 1.8,-0.1 z m -30.7,-7.8 1.9,1.4 0.3,1.7 -1.0,0.2 -1.7,-1.1 -0.6,-1.8 1.1,-1.4 0.5,0.5 -0.4,0.4 z m 0.1,-6.7 0.0,1.9 0.9,0.7 -1.3,0.4 -0.1,2.3 -2.9,-3.0 0.8,-2.2 2.5,-0.1 z m -30.8,-2.1 -0.1,1.4 -0.9,0.1 -0.1,-1.1 1.1,-0.3 z m 23.6,-1.9 2.6,0.1 -0.0,2.9 -0.8,0.2 -3.1,-1.8 0.6,-1.4 0.8,0.0 z m -14.0,-0.1 1.4,0.3 0.9,1.7 -2.0,-0.2 -0.7,-1.2 0.5,-0.6 z m 27.1,-3.9 -0.1,1.0 -0.9,0.3 0.1,-1.2 0.9,-0.1 z m -96.5,-4.5 0.4,0.3 -0.7,0.9 -1.7,0.1 0.3,-1.2 1.0,-0.5 0.6,0.5 z m 104.2,-6.3 0.9,0.7 -1.5,1.9 -1.3,-1.3 1.9,-1.3 z"/><path id="IT-52" title="Toscana" d="m 189.4,341.5 0.9,1.8 -0.8,0.7 -1.0,-0.2 -0.2,-2.1 1.1,-0.2 z m 29.3,-2.8 2.0,2.0 -0.2,3.0 -2.0,-2.4 -0.8,-0.1 1.0,-2.5 z m -41.3,-15.9 1.1,2.1 -0.7,1.5 -2.2,-1.0 1.4,-0.7 0.4,-1.9 z m 17.3,-17.3 1.3,1.4 -0.8,2.1 0.3,2.7 -2.5,1.4 2.5,1.7 -0.6,1.9 -2.5,-0.8 -0.9,-2.7 -0.8,-0.4 -1.2,0.2 0.1,1.7 -0.9,-1.6 -0.8,1.7 -2.2,-1.0 -0.2,1.6 -2.7,-0.7 -1.6,0.3 0.2,0.5 -1.8,-1.1 -1.0,-1.8 0.1,-1.6 1.8,-1.4 2.9,-0.1 2.5,1.6 0.2,-0.8 1.1,-0.3 -0.4,-0.6 0.7,-0.5 -0.6,-0.8 3.6,0.9 -0.8,1.0 1.9,0.3 2.7,-5.0 0.6,0.2 z m -30.1,-13.8 0.7,2.0 -1.8,2.4 -0.9,-1.3 0.5,-2.3 1.2,-1.3 0.3,0.5 z m 123.1,-52.0 0.1,0.2 0,0 0.3,1.1 -2.2,1.1 -1.4,-1.6 0.3,-1.1 2.8,0.0 0,0 0.1,0.3 z m -130.8,-39.6 3.6,-2.1 3.4,-5.4 5.3,-0.6 2.4,0.9 0.5,1.2 1.1,0.2 -0.5,2.6 1.1,1.3 4.3,2.9 2.4,-0.5 5.6,6.0 2.4,-1.2 2.2,1.2 1.6,0.0 3.0,3.0 1.7,-0.3 1.2,0.7 -0.1,1.4 1.7,1.6 0.2,1.6 3.4,3.0 1.7,-0.4 -0.1,-1.3 1,-1.2 5.6,0.1 5.0,4.0 2.3,0.5 0.7,0.9 -0.3,0.9 0.7,0.3 4.9,-5.5 0.4,0.9 -0.6,1.0 1.6,1.1 2.8,0.3 3.3,-1.4 3.1,0.9 2.5,-0.2 -0.2,-1.1 -2.9,-1.7 0.1,-0.9 4.0,-0.1 2.3,-2.1 0.2,-1.1 2.5,-0.3 2.5,-2.4 1.3,1.2 0.3,2.1 1.4,0.4 1.7,2.0 1.2,0.3 1.0,-1 2.6,0.5 0.2,1.0 -1.4,2.1 2.7,0.4 5.5,-1.1 -0.3,2.7 -2.0,2.2 -0.4,2.0 -1.7,0.6 0.2,1.1 -0.7,-0.1 -0.2,1.1 2.2,2.1 -0.3,1.6 1.8,1.2 -0.3,3.1 3.6,2 2,2.4 4.7,0.2 0.5,1.3 1.4,0.2 0,0 0.2,1.0 1.6,1.1 0,0 1.1,-0.4 1.5,0.9 0.9,-0.2 0,0 1.1,1.3 1.7,-0.9 0,0 1.4,0.2 1.4,-0.8 1.6,2.3 0.8,-2.0 2.0,0.4 1.6,-0.9 0,0 0.2,0.1 0,0 2.1,0.9 2.3,3.1 -2.1,0.0 0.3,2.2 -0.9,-0.1 -0.6,-3.7 -0.4,3.1 -1.2,0.7 -1.5,-0.3 0.2,0.8 -0.9,1.1 -2.3,0.8 1.4,2.2 0,0 -2.5,3.1 -0.8,2.6 -2.2,-0.2 -0.6,0.6 -0.2,1.8 2.6,1.5 -0.1,0.6 -2.1,0.9 -1.0,1.7 -1.1,-0.3 -1.7,1.7 0.3,1 2.1,-0.2 0.1,2.7 1.4,-0.5 0.7,0.6 1.0,2.3 -0.6,1.7 0.4,0.9 2.2,0.8 0.9,-2.2 1.5,1.3 -6.7,4.2 -2.2,-1.2 -0.8,0.4 0.5,1.3 -1.0,2.7 -5.2,3.0 -0.5,1.3 0.9,2.4 -0.3,1.2 0.8,1.6 0.8,-1.1 1.3,1.4 -2.4,9.8 1.1,0.8 0.1,1.8 -1.3,0.1 -1.9,2.3 0,0 -2.5,-0.1 -1.6,1.1 -0.5,2.0 -0.7,-1.3 -1.2,-0.5 -1.2,2.4 3.8,3.0 -1.0,2.4 -1.2,-0.0 0.4,2.6 1.1,0.5 0.1,1.1 -1.4,0.9 -1.4,-0.2 -0.9,2.1 -1.3,-0.2 -1.5,1.1 -0.2,1.1 -1.7,0.9 -0.8,-0.2 -0.7,0.9 -1.1,-1.1 -0.6,0.3 0.5,1.8 -1.4,1.9 2.8,1.9 0.1,3.4 -6.8,0.1 -1.9,4.2 0,0 -8.4,-1.9 -1.2,-0.9 -2.7,0.7 0.1,1.5 -1.0,0.5 -0.2,1.2 -1.8,0.1 -1.4,-1.7 -1.6,-0.5 -0.4,-2.6 1.0,-1.2 0.8,0.9 2.2,-0.2 1.0,-2.1 0.3,-3.1 -1.7,-3.6 -1.8,0.4 -1.0,-2.9 -1.1,-1.1 0.2,-1.0 -4.1,-1.8 -0.9,-3.7 -2.2,-2.3 -4.4,-1.8 -3.4,-0.4 -3.1,-2.0 1.8,-1.1 0.1,-3.6 0.9,-1.3 -0.7,-1.5 -1.8,-1.3 -3.2,-1.5 -2.9,-0.3 -3.7,0.6 -0.4,1.8 -2.3,-0.8 -0.6,-3.9 1.7,-0.8 1.1,-6.2 -0.7,-11.1 -1.2,-2.9 -2.2,-2.3 -1.8,-5.5 -1.1,-0.1 -1.1,-3.2 -2.6,-2.0 -1.6,-4.3 0.3,-2.4 -1.9,-7.7 0.6,-0.9 -0.2,-4.0 -1.8,-8.7 -5.0,-7.7 -4.1,-3.6 -2.2,-1.0 0,0 2.2,-2.5 0.3,-1.4 -2.4,-1.5 -1.8,1.5 0.5,-1.2 -0.9,-1.4 -0.2,-2.4 -3.9,0.1 1.2,-2.0 0.8,-0.1 -1.5,-1.0 -2.1,1.8 0.4,-2.7 -0.8,-0.7 -0.1,-2.6 -2.6,-1.1 -4.0,-3.1 -1.0,-2.6 -1.5,0.0 z"/><path id="IT-32" title="Trentino-Alto Adige" d="m 286.2,0.7 1.7,1.4 -1.2,0.8 -0.5,2.2 -3.0,0.3 -1.3,1.3 0.8,3.8 1.6,1.5 -1.3,1.9 2.3,0.4 1.4,2.3 1.4,-1.1 1.8,0.4 1.6,3.2 -1.1,1.9 -0.1,2.3 3.6,0.7 1.4,4.3 5.0,2.9 0,0 -2.5,0.9 -1.7,1.9 -0.9,-0.2 0.4,1.3 -0.5,0.5 -1.3,0.1 -0.7,-0.9 -3.0,0.9 -1.2,-0.8 -3.3,2.6 -0.1,-2.3 -1.6,-1.0 -0.8,0.3 -3.9,-3.1 0.3,2.3 -1.5,2.7 0.2,1.5 -2.5,3.9 -0.6,-0.8 -1.2,0.1 -1.2,1.2 -1.6,-0.3 -4.9,2.5 -0.1,1.6 3.1,0.4 0.6,1.4 -2.3,2.7 -0.3,3.7 -0.8,-0.7 -2.4,1.4 2.9,2.4 0.6,1.4 -0.7,1.9 0.8,0.7 2.2,-0.5 0.4,1.9 0.6,-0.4 1.2,0.6 -0.8,2.0 2.4,2.2 -0.6,1.6 -1.1,-0.4 -1.7,4.0 -4.2,1.5 -2.2,-0.2 -0.8,0.8 -0.7,-0.8 -2.7,0.9 -0.0,2.0 0.9,1.5 -2.1,0.6 0.7,0.7 -0.7,0.8 1.1,2.0 -0.9,1.9 -4.2,-0.3 -0.5,-2.8 -1.9,-0.6 -2.1,0.3 -2.7,2.3 -3.6,-0.2 0.4,2.9 -1.3,0.2 -0.7,1.5 0.3,1.0 -2.5,-1.3 -0.1,-0.8 0.0,1.4 -2.4,-0.2 -0.9,4.9 -2.4,2.8 0.6,2.4 -1.6,-0.1 0.1,3.6 -2.5,3.4 -1.6,-0.2 -1.9,-1.8 -1.6,0.9 -0.4,-1.2 -1.8,2.6 -0.5,-1.0 -1.5,1.7 -1.5,-0.9 0.7,-1.1 -2.0,-1.0 -2.2,-0.0 2.2,-4.0 -0.8,-1.5 1.3,-1.1 -2.7,-1.7 0,0 -4.0,-0.8 -0.4,0.9 -1.3,-1.0 -4.0,0.8 -0.5,2.1 -2.0,0.1 -2.1,1.3 -1.3,-0.1 -0.4,-0.9 0.7,-1.4 -2.2,-1.0 -0.5,-4.3 0.9,-2.1 -1.3,-2.0 0.2,-2.0 -1.7,-0.3 -0.1,-1 0.6,-1.8 1.2,-0.9 -0.4,-1.9 3.3,-4.1 0.9,-4.4 -1.1,-1.6 2.3,-4.2 -0.5,-2.1 -0.8,-0.5 0.9,-1.3 -0.6,-2.0 -2.6,-1.3 2.6,-2.5 2.0,-0.1 1.5,-1.6 -0.8,-1.4 0.2,-2.2 -1.0,-1.4 -2.6,-1.8 -3.8,-0.3 -1.1,-2.7 0,0 1,-0.9 0.9,-5.1 -2.3,-2.1 -2.3,0.3 -0.8,-3.6 1.5,-1.9 -0.8,-1.8 2.2,-1.7 -1.2,-2.6 1.4,-0.8 1.5,-4.1 1.1,0.9 2.8,-0.2 -0.4,0.9 6.1,-2.8 1.4,0.8 -0.0,1.0 3.2,1.3 0.5,0.8 -1.8,2.6 1.3,0.2 1.6,-0.8 1.4,1.5 1.2,-0.5 2.5,1.4 1.7,-0.9 5.2,0.6 0.9,-2.9 2.3,-1.2 -0.6,-2.4 1.4,-2.6 -0.1,-1.8 0.9,-1.3 1.3,0.2 1.2,-0.9 0.1,-1.9 1.2,-0.4 0.9,0.6 5.8,-2.2 0.8,0.6 1.1,-0.5 2.4,1.9 1.9,-0.8 2,-2.7 2.9,2.1 4.2,-2.2 2.3,1.5 2.4,0.1 0.9,1.4 1.0,0.3 1.8,-1.6 2.8,-0.1 4.0,-3.1 1.6,-0.1 1.4,-1.1 2.2,0.2 1,-1.1 1.8,0.2 1.1,-1.4 1.1,0.4 3.4,-1.4 z"/><path id="IT-55" title="Umbria" d="m 297.8,255.0 -0.5,-0.6 0,0 -0.2,-0.1 0,0 0.2,-0.7 0.7,0.3 0,0 0.1,0.5 0,0 -0.3,0.5 z m -11.0,-1.5 0.7,1.2 3.1,-0.0 0.3,0.6 2.1,-1.7 1.9,-0.1 -0.5,0.8 0.5,1.4 -2.9,2.7 1.4,1.4 1.4,-0.7 1.3,1.7 1.4,-2.1 1.0,0.1 0.8,1.4 0.9,0.1 0.3,-0.9 0.9,0.4 6.4,7.3 2.1,-1.3 2.2,0.8 1.3,-2.7 2.1,0.6 -0.4,2.0 0.9,0.8 -1.8,1.7 0.1,0.8 2.3,3.0 0.4,2.9 -0.6,0.7 1.9,1.3 0.7,3.4 1.4,0.7 -0.1,2.9 -1.6,1.6 0.7,1.5 2.1,0.4 0.6,1.7 -0.2,2.8 0.8,2.1 -0.9,0.7 0.9,1.9 -0.6,1.5 2.7,1.6 0.2,0.9 1.1,0.1 0.1,4.0 1.2,-1.4 0.0,-1.7 1.3,0.8 1.4,-1.4 3.0,2.3 2.5,3.9 2.7,-0.6 1.2,-1.8 1.4,3.6 -0.2,1.8 -0.9,1.9 -0.4,-0.8 -1.9,0.8 -0.2,2 0,0 -0.8,4.5 -1.3,1.3 -1.6,-0.6 -0.1,0.8 -2.8,1.7 -2.1,-1.1 -0.7,1.5 -3.2,-0.0 -0.8,1.0 -2.0,-1.0 -0.6,1.2 0.6,2.5 -2.1,0.7 -1.9,1.6 -2.0,-0.1 -0.2,1.3 -3.1,0.9 1.4,2.0 -3.0,2.0 -1.2,0.1 -0.9,-1.9 -1.2,0.1 -0.2,3.9 -4.3,3.4 -0.9,-1 0.1,-1.7 -3.6,0.5 1.0,-1.4 -2.3,-0.8 0.0,-2.1 0.7,-0.2 -0.7,-0.7 0.2,-1.9 -1.5,-0.2 -2,1.6 -1.2,-1.3 -1.9,0.2 0.7,-0.5 -1.5,-0.8 0.8,-0.7 -1.0,-0.8 0.2,-1.9 -1.7,-0.8 -0.6,-4.5 -1.7,-2.1 -1.6,-0.7 -1.4,1.2 -0.7,-0.2 -0.1,0.8 -1.0,-1.1 -3.7,1.3 -4.1,-2.6 -1.3,-2.1 1.9,-1.0 1.0,-2.0 -2.8,-1.8 -1.6,-3.9 0,0 1.9,-2.3 1.3,-0.1 -0.1,-1.8 -1.1,-0.8 2.4,-9.8 -1.3,-1.4 -0.8,1.1 -0.8,-1.6 0.3,-1.2 -0.9,-2.4 0.5,-1.3 5.2,-3.0 1,-2.7 -0.5,-1.3 0.8,-0.4 2.2,1.2 6.7,-4.2 -1.5,-1.3 -0.9,2.2 -2.2,-0.8 -0.4,-0.9 0.6,-1.7 -1.0,-2.3 -0.7,-0.6 -1.4,0.5 -0.1,-2.7 -2.1,0.2 -0.3,-1 1.7,-1.7 1.1,0.3 1.0,-1.7 2.1,-0.9 0.1,-0.6 -2.6,-1.5 0.2,-1.8 0.6,-0.6 2.2,0.2 0.8,-2.6 2.4,-3.2 z"/><path id="IT-23" title="Valle d'Aosta" d="m 49.1,82.5 0.6,1.2 3.8,-0.5 0.9,1.5 1.3,0.5 0.6,1.9 1.6,-1.1 2.5,1.6 1.2,-0.7 2.1,0.7 0,0 0.7,4.1 -0.7,5.0 1.7,3.1 1.6,0.6 0.4,1.2 -1.7,2.8 1.8,3.7 -1.2,0.2 -0.7,3.0 -1.0,-0.7 -2.6,0.2 -4.9,3.5 -0.7,-0.6 -2.3,0.4 -2.0,-1.3 -1.4,0.7 -0.1,-0.9 -2.0,-1.2 -2.1,1.1 -1.9,-0.5 -1.2,0.4 -0.9,1.6 -3.5,2.8 -1.0,-0.7 -1.9,0.9 -2.8,0.1 -2.4,3.0 -3.1,-1.1 -0.9,0.7 -0.4,-2.9 -1.8,3.6 0,0 -2.7,-0.4 0.3,-1.6 -2.8,-0.8 -0.2,-5.1 -0.9,-1 1.2,-3.8 -1.7,-1.1 -2.6,0.2 -0.5,-1.4 -2.5,-0.9 -2.5,-2.9 0.4,-1.2 -0.8,-3.0 1.0,-4.1 1.2,-0.3 1.0,0.6 0.7,-1.2 1.8,0.6 1.5,-0.5 0.5,-1.0 2.3,-0.8 0.3,-2.1 2.1,-1.7 3.2,4.8 2.6,-1.6 1.9,1.5 1.2,-2.1 2.1,-0.1 1.8,-2.4 4.7,1.8 4.5,-2.8 -0.0,-1.0 1.4,-1.1 2.2,0.4 0.3,-2.1 z"/><path id="IT-34" title="Veneto" d="m 303.9,157.5 -1.4,0.8 0.9,-1.1 -0.9,-0.4 1.6,-0.2 -0.3,0.8 z m -1.6,-2.1 1.2,0.9 -2.4,0.5 0.6,-1.8 0.6,0.3 z m -0.4,-124.1 2.8,1.9 5.5,-0.6 2.1,0.7 0.9,1.1 0,0 -0.2,1.8 1.0,1.7 -0.7,2.3 0.9,1.2 -2.5,0.1 -3.5,2.2 -0.1,0.9 1.2,0.8 0.4,1.7 -1.8,-0.8 -1.0,0.8 -1.9,-0.8 -1.6,1.2 -0.4,-0.4 -1.5,2.0 -0.3,1.8 -2,1.8 0.3,1.4 -0.6,-0.3 0.2,0.6 -1.8,0.9 -0.3,2.0 -1.9,-0.3 -1.0,0.8 0.0,2.0 -1.8,1.9 2.1,2.9 2.1,-0.0 0.3,1.6 1.8,-0.1 0.3,2.1 2.4,1.9 -0.5,3.6 -2.9,2.0 -1.8,2.8 0.9,0.8 0.7,2.6 0.0,3.5 1.4,0.0 1.1,1.5 1.5,0.0 1.3,4.5 1.4,1.3 -0.2,1.2 2,1.1 0.7,-1.6 1.2,0.7 0.1,0.9 1.1,0.5 0.1,1.6 3.9,-3.6 0.7,0.7 2.0,-2.1 1.1,0.8 -0.4,1 0.6,0.7 0.6,-1.0 2.2,-1.1 0.6,0.1 -0.4,1.1 1.2,1.1 1.5,-0.9 0.5,1.1 1.6,-0.5 -0.5,-1.4 0.6,-0.2 0.6,1.6 -0.0,0.3 0.4,0.4 -0.2,0.8 0.8,0.3 -1.1,0.6 2.0,1.9 -0.5,0.3 0.7,1.3 -0.3,1.2 1.0,-0.7 0.6,2.7 0.8,0.2 -0.4,0.8 1.0,0.8 -0.2,1.3 1.0,-0.1 -0.1,0.6 1.1,0.6 0,0 -0.6,0.8 -4.9,0.3 0.1,-0.8 -0.9,-0.3 -0.5,1.4 -3,0.4 -0.9,1.3 -6.3,3.9 -15.9,7.4 -1.5,2.0 -1.7,-0.8 -1.9,2.6 -1.4,2.8 -0.1,1.1 0.8,0.4 -1.1,0.4 -1.6,6.5 1.4,0.4 -1.1,1.1 0.6,2.5 1.3,1.4 -0.3,5.3 1.4,1.2 1.6,3.1 -0.5,-0.3 -0.8,0.9 0.9,0.6 0.9,-0.6 -0.2,1.1 0.5,0.1 0.6,-0.3 -0.4,-1.8 0.5,0.0 4.3,5.4 -0.7,4.5 -1.1,1.0 0.0,2.9 -1.6,-0.6 0.3,-2.9 -1.0,-0.4 -0.9,0.4 -0.8,1.7 0.9,1.1 -0.4,2.1 0.8,0.7 0.7,-0.5 0.1,0.7 -1.3,-0.1 -0.1,1.4 -2.4,-1.9 0,0 -0.6,-2.2 -2.0,-0.5 -0.6,-0.9 -0.3,-2.9 0.6,-1.2 -0.8,-1.1 -1.1,0.0 -1.5,1.3 -2.1,-0.2 -0.8,-1.1 -1.5,1.0 -2.3,-3.1 -6.7,-1.1 -2.2,0.8 -6.3,-0.1 -2.9,1.4 -0.7,2.2 -3.2,0.9 -2.0,1.9 -1.2,0.1 -0.7,-0.2 -0.4,-1.6 -2.1,-1.4 -5.7,0.4 -0.2,-1.5 0,0 -0.2,-1.0 -8.0,-4.3 0,-2.5 -1.4,0.8 -3.1,-1.2 0.6,-1.6 -0.4,-1.0 1.3,-1.0 -3,-1.1 -0.9,1.7 -1.4,-0.7 -0.2,1.3 -1.2,-0.2 -2.3,-1.9 1.0,-1.9 -0.9,-0.6 -1.6,0.3 0.4,-1.7 -0.8,-1.2 -2.9,-1.3 0.1,-1.3 -1.8,-0.5 -0.1,-0.7 -2.6,-0.6 -1.1,-2.4 -2.0,-1.9 -2.4,2.0 -0.5,-1.0 -1.5,-0.4 0.7,-1.9 -1.0,-1.5 1.3,-1.0 -1.0,-0.8 1.0,-2.6 -2.5,-1.1 -0.7,0.8 -0.8,-0.2 0.4,-2.0 -1.1,-11.8 11.1,-16.5 0,0 2.7,1.7 -1.3,1.1 0.8,1.5 -2.2,4.0 2.2,0.0 2.0,1.0 -0.7,1.1 1.5,0.9 1.5,-1.7 0.5,1.1 1.9,-2.7 0.4,1.2 1.6,-0.9 1.9,1.8 1.6,0.2 2.5,-3.4 -0.1,-3.6 1.6,0.1 -0.6,-2.4 2.4,-2.8 0.9,-4.9 2.4,0.2 -0.0,-1.4 0.1,0.8 2.5,1.3 -0.3,-1.0 0.7,-1.5 1.3,-0.2 -0.4,-2.8 3.6,0.2 2.7,-2.3 2.1,-0.3 1.9,0.6 0.5,2.8 4.2,0.3 0.9,-1.9 -1.1,-2.0 0.7,-0.8 -0.7,-0.7 2.1,-0.6 -0.9,-1.5 0.0,-2.0 2.7,-0.9 0.7,0.8 0.7,-0.8 2.2,0.2 4.2,-1.5 1.7,-4.0 1.1,0.4 0.6,-1.6 -2.4,-2.2 0.8,-2.0 -1.2,-0.6 -0.6,0.4 -0.4,-1.9 -2.2,0.5 -0.8,-0.7 0.7,-1.9 -0.6,-1.4 -2.9,-2.4 2.4,-1.4 0.8,0.7 0.3,-3.7 2.3,-2.7 -0.6,-1.4 -3.1,-0.4 0.1,-1.6 4.9,-2.5 1.6,0.3 1.2,-1.2 1.2,-0.1 0.6,0.8 2.5,-3.9 -0.2,-1.5 1.5,-2.7 -0.3,-2.3 3.9,3.1 0.8,-0.3 1.6,1.0 0.1,2.3 3.3,-2.6 1.2,0.8 3.0,-0.9 0.8,0.9 1.3,-0.1 0.5,-0.5 -0.4,-1.3 0.9,0.2 1.7,-1.9 2.5,-0.9 0,0 1.4,-0.1 z"/></svg>